# xmcd
#
# Track frame offsets: 
#        150
#        29192
#        51832
#        79027
#        101182
#        131614
#        156397
#        183654
#        205501
#        239350
#
# Disc length: 3548 seconds
#
# Revision: 2
# Processed by: cddbd v1.5.2PL0 Copyright (c) Steve Scherf et al.
# Submitted via: ExactAudioCopy v1.0b6
#
DISCID=8d0dda0a
DTITLE=Tino Gonzales - A World Of Blues
DYEAR=2002
DGENRE=Blues
TTITLE0=Lies, Lies, Lies
TTITLE1=You Bad
TTITLE2=Cruising In The Night
TTITLE3=Cajun Queen
TTITLE4=Million Miles Away
TTITLE5=I Was All Wrong For You
TTITLE6=Compared To What
TTITLE7=Just For Juliette
TTITLE8=No More Misery
TTITLE9=Peace And Wine
EXTD=YEAR: 2002 ID3G: 0
EXTT0=
EXTT1=
EXTT2=
EXTT3=
EXTT4=
EXTT5=
EXTT6=
EXTT7=
EXTT8=
EXTT9=
PLAYORDER=
